<svg width="817" height="674" viewBox="0 0 817 674" fill="none" xmlns="http://www.w3.org/2000/svg">
<path opacity="0.05" d="M727.901 163.184C719.681 148.949 701.478 144.072 687.245 152.29L535.434 239.922C546.432 229.582 547.952 212.644 538.964 200.514C529.975 188.383 513.33 184.904 500.235 192.418L497.382 194.085C499.036 192.543 500.861 191.192 502.816 190.055L580.149 145.409C593.252 137.844 598.59 121.656 592.566 107.779C586.543 93.9028 571.066 86.7538 556.597 91.1618L599.35 66.4798C613.591 58.2608 618.473 40.0518 610.255 25.8098C602.036 11.5678 583.829 6.68477 569.584 14.9038L79.8425 297.665C65.6055 305.884 60.7275 324.089 68.9465 338.327C77.1655 352.564 95.3705 357.443 109.607 349.223L161.165 319.458C175.402 311.24 193.607 316.119 201.826 330.356C210.045 344.593 205.166 362.797 190.928 371.016L87.8185 430.546C78.5335 435.827 72.7895 445.674 72.7665 456.356C72.7425 467.034 78.4435 476.912 87.7045 482.232C96.9665 487.548 108.37 487.5 117.584 482.098L166.29 453.977C155.234 464.305 153.685 481.283 162.69 493.439C171.694 505.599 188.386 509.069 201.49 501.503L95.7905 563.414C86.5045 568.693 80.7595 578.543 80.7355 589.222C80.7125 599.904 86.4135 609.778 95.6755 615.098C104.937 620.418 116.34 620.367 125.555 614.964L277.352 527.316C266.31 537.648 264.77 554.616 273.77 566.768C282.77 578.917 299.452 582.391 312.552 574.836L673.427 366.487C687.169 358.517 692.233 341.16 684.927 327.052C677.624 312.945 660.526 307.061 646.084 313.685C657.432 303.501 659.253 286.389 650.295 274.049C641.34 261.709 624.507 258.132 611.309 265.764L717 203.854C723.842 199.908 728.832 193.406 730.876 185.778C732.923 178.15 731.852 170.022 727.901 163.184Z" fill="#008CFF"/>
<path d="M743.97 100.706L713.154 93.8757L719.967 63.0581L750.802 69.8734L743.97 100.706ZM718.125 90.7066L740.794 95.7248L745.807 73.0581L723.142 68.0381L718.125 90.7066Z" fill="#02CCAA"/>
<path d="M6.8139 453.696L0.00195312 422.877L30.8162 416.049L37.6494 446.879L6.8139 453.696ZM4.97181 426.045L9.98944 448.715L32.6543 443.694L27.6417 421.028L4.97181 426.045Z" fill="#02CCAA"/>
<path d="M611.278 477.77L605.873 453.349L630.295 447.942L635.704 472.368L611.278 477.77ZM610.843 456.518L614.448 472.801L630.735 469.2L627.127 452.913L610.843 456.518Z" fill="#02CCAA"/>
<path d="M255.143 673.106C246.861 673.106 240.148 666.393 240.148 658.111C240.148 649.831 246.861 643.118 255.143 643.118C263.423 643.118 270.137 649.831 270.137 658.111C270.127 666.389 263.42 673.096 255.143 673.106ZM255.143 647.078C249.049 647.078 244.109 652.018 244.109 658.111C244.109 664.206 249.049 669.145 255.143 669.145C261.236 669.145 266.176 664.206 266.176 658.111C266.17 652.021 261.234 647.085 255.143 647.078Z" fill="#008BFF"/>
<path d="M384.915 30.4036C376.52 30.3969 369.72 23.5886 369.724 15.1941C369.728 6.79961 376.536 -0.00192678 384.93 4.09445e-07C393.325 0.0019276 400.127 6.80732 400.127 15.2018C400.118 23.5982 393.311 30.4007 384.915 30.4036ZM384.915 4.01559C378.739 4.02137 373.734 9.03339 373.738 15.2095C373.743 21.3856 378.753 26.3899 384.93 26.388C391.106 26.3861 396.113 21.3789 396.113 15.2018C396.106 9.02279 391.095 4.01559 384.915 4.01559Z" fill="#008BFF"/>
<path d="M799.829 342.942C790.769 342.941 783.425 335.596 783.425 326.536C783.425 317.476 790.769 310.132 799.829 310.132C808.889 310.132 816.234 317.476 816.234 326.536C816.225 335.592 808.884 342.931 799.829 342.942ZM799.831 314.464C793.164 314.464 787.758 319.869 787.758 326.536C787.758 333.204 793.163 338.609 799.829 338.609C806.496 338.609 811.901 333.204 811.901 326.536C811.896 319.873 806.494 314.472 799.831 314.464Z" fill="#008BFF"/>
<path d="M506.759 583.904L478.067 602.197L476.57 568.203L506.759 583.904ZM481.931 594.79L498.449 584.259L481.071 575.218L481.931 594.79Z" fill="#EA3940"/>
<path d="M171.544 158.889L142.852 177.182L141.355 143.188L171.544 158.889ZM146.716 169.775L163.234 159.244L145.857 150.204L146.716 169.775Z" fill="#EA3940"/>
<path d="M239.674 307.463L354.042 428.354L572.434 239.399" stroke="url(#paint0_linear_1489_2498)" stroke-width="60"/>
<defs>
<linearGradient id="paint0_linear_1489_2498" x1="574.054" y1="335.876" x2="202.054" y2="335.876" gradientUnits="userSpaceOnUse">
<stop stop-color="#008CFF"/>
<stop offset="0.5" stop-color="#0060DD"/>
<stop offset="1" stop-color="#0035BA"/>
</linearGradient>
</defs>
</svg>
