<svg width="60" height="60" viewBox="0 0 60 60" fill="none" xmlns="http://www.w3.org/2000/svg">
<path d="M12.4573 10.94C15.4783 10.94 17.9273 8.491 17.9273 5.47C17.9273 2.449 15.4783 0 12.4573 0C9.43631 0 6.9873 2.449 6.9873 5.47C6.9873 8.491 9.43631 10.94 12.4573 10.94Z" fill="#25447F"/>
<path d="M23.355 18.75V49.0975H32.7775V34.09C32.7775 30.13 33.5225 26.295 38.4325 26.295C43.275 26.295 43.335 30.8225 43.335 34.34V49.1H52.7625V32.4575C52.7625 24.2825 51.0025 18 41.4475 18C36.86 18 33.785 20.5175 32.5275 22.9H32.4V18.75H23.355V18.75ZM8 18.75H17.4375V49.0975H8V18.75Z" fill="#25447F"/>
</svg>
