<svg width="44" height="36" viewBox="0 0 44 36" fill="none" xmlns="http://www.w3.org/2000/svg">
<path d="M39.333 0.666504H4.66634C2.28301 0.666504 0.354674 2.6165 0.354674 4.99984L0.333008 30.9998C0.333008 33.3832 2.28301 35.3332 4.66634 35.3332H39.333C41.7163 35.3332 43.6663 33.3832 43.6663 30.9998V4.99984C43.6663 2.6165 41.7163 0.666504 39.333 0.666504ZM38.4663 9.87484L23.148 19.4515C22.4547 19.8848 21.5447 19.8848 20.8513 19.4515L5.53301 9.87484C5.31575 9.75288 5.1255 9.5881 4.97377 9.39049C4.82203 9.19287 4.71198 8.96652 4.65025 8.72514C4.58853 8.48376 4.57643 8.23236 4.61468 7.98617C4.65293 7.73997 4.74074 7.5041 4.87278 7.29282C5.00483 7.08155 5.17838 6.89926 5.38291 6.75699C5.58745 6.61473 5.81873 6.51545 6.06275 6.46515C6.30677 6.41486 6.55845 6.4146 6.80258 6.46439C7.0467 6.51418 7.27818 6.61299 7.48301 6.75484L21.9997 15.8332L36.5163 6.75484C36.7212 6.61299 36.9526 6.51418 37.1968 6.46439C37.4409 6.4146 37.6926 6.41486 37.9366 6.46515C38.1806 6.51545 38.4119 6.61473 38.6164 6.75699C38.821 6.89926 38.9945 7.08155 39.1266 7.29282C39.2586 7.5041 39.3464 7.73997 39.3847 7.98617C39.4229 8.23236 39.4108 8.48376 39.3491 8.72514C39.2874 8.96652 39.1773 9.19287 39.0256 9.39049C38.8738 9.5881 38.6836 9.75288 38.4663 9.87484Z" fill="#25447F"/>
</svg>
