<svg width="1113" height="251" viewBox="0 0 1113 251" fill="none" xmlns="http://www.w3.org/2000/svg">
<g opacity="0.1" clip-path="url(#clip0_500_212)">
<path d="M1105.67 80.2578C1003.04 55.745 890.286 37.0845 774.265 50.5946C691.981 60.6034 550.267 91.8039 475.641 114.041C530.679 82.0972 661.68 39.8449 780.932 25.4409C841.372 20.3413 901.768 22.6065 957.873 32.077C1013.98 41.5476 1064.43 57.9935 1105.67 80.2578Z" fill="#3E71D4"/>
<path d="M896.381 70.1173C776.069 61.6379 648.512 119.125 561.172 135.047C389.195 169.98 309.022 124.73 217.561 108.308C181.932 103.423 143.798 103.659 106.543 108.994C69.2887 114.33 34.0664 124.6 4.0023 138.894C37.5917 110.487 124.637 83.1894 220.23 88.8559C309.525 94.5172 386.558 146.586 565.039 110.413C659.767 90.8499 796.619 46.8587 896.381 70.1173Z" fill="#3E71D4"/>
<path d="M634.083 124.982C564.944 155.34 488.655 189.448 354.061 176.178C234.692 163.173 174.964 151.801 116.259 167.638C26.072 192.136 60.267 235.678 116.174 229.981C147.423 227.06 171.926 207.939 143.564 188.382C206.936 212.684 121.899 261.264 57.4685 237.173C14.42 221.205 13.4602 182.295 73.3394 157.126C218.414 96.8832 354.127 184.69 531.632 150.714C571.045 143.284 608.398 131.23 634.083 124.982Z" fill="#3E71D4"/>
</g>
<defs>
<clipPath id="clip0_500_212">
<rect width="1102.76" height="163.35" fill="white" transform="translate(1112.27 162.831) rotate(175.431)"/>
</clipPath>
</defs>
</svg>
