<svg width="50" height="50" viewBox="0 0 50 50" fill="none" xmlns="http://www.w3.org/2000/svg">
<path d="M4.16675 12.4998C4.16675 10.2897 5.04472 8.17008 6.60753 6.60728C8.17033 5.04448 10.2899 4.1665 12.5001 4.1665H37.5001C39.7102 4.1665 41.8298 5.04448 43.3926 6.60728C44.9554 8.17008 45.8334 10.2897 45.8334 12.4998V37.4998C45.8334 39.71 44.9554 41.8296 43.3926 43.3924C41.8298 44.9552 39.7102 45.8332 37.5001 45.8332H12.5001C10.2899 45.8332 8.17033 44.9552 6.60753 43.3924C5.04472 41.8296 4.16675 39.71 4.16675 37.4998V12.4998Z" stroke="black" stroke-width="2" stroke-linecap="round" stroke-linejoin="round"/>
<path d="M17.7083 22.9167C20.5848 22.9167 22.9167 20.5848 22.9167 17.7083C22.9167 14.8319 20.5848 12.5 17.7083 12.5C14.8319 12.5 12.5 14.8319 12.5 17.7083C12.5 20.5848 14.8319 22.9167 17.7083 22.9167Z" stroke="black" stroke-width="2" stroke-linecap="round" stroke-linejoin="round"/>
<path d="M30.2625 26.2937L12.5 45.8333H37.7771C39.9137 45.8333 41.9629 44.9845 43.4737 43.4737C44.9846 41.9628 45.8333 39.9137 45.8333 37.777V37.5C45.8333 36.5291 45.4687 36.1562 44.8125 35.4375L36.4167 26.2812C36.0254 25.8544 35.5494 25.5138 35.0191 25.2812C34.4888 25.0485 33.9159 24.929 33.3368 24.9302C32.7578 24.9314 32.1853 25.0532 31.656 25.288C31.1266 25.5228 30.6521 25.8653 30.2625 26.2937V26.2937Z" stroke="black" stroke-width="2" stroke-linecap="round" stroke-linejoin="round"/>
</svg>
