<svg width="50" height="50" viewBox="0 0 50 50" fill="none" xmlns="http://www.w3.org/2000/svg">
<path d="M44.1406 7.71484H19.9219C19.707 7.71484 19.5312 7.89062 19.5312 8.10547V10.8398C19.5312 11.0547 19.707 11.2305 19.9219 11.2305H44.1406C44.3555 11.2305 44.5312 11.0547 44.5312 10.8398V8.10547C44.5312 7.89062 44.3555 7.71484 44.1406 7.71484ZM44.1406 28.418H19.9219C19.707 28.418 19.5312 28.5938 19.5312 28.8086V31.543C19.5312 31.7578 19.707 31.9336 19.9219 31.9336H44.1406C44.3555 31.9336 44.5312 31.7578 44.5312 31.543V28.8086C44.5312 28.5938 44.3555 28.418 44.1406 28.418ZM44.1406 38.7695H5.85938C5.64453 38.7695 5.46875 38.9453 5.46875 39.1602V41.8945C5.46875 42.1094 5.64453 42.2852 5.85938 42.2852H44.1406C44.3555 42.2852 44.5312 42.1094 44.5312 41.8945V39.1602C44.5312 38.9453 44.3555 38.7695 44.1406 38.7695ZM44.1406 18.0664H5.85938C5.64453 18.0664 5.46875 18.2422 5.46875 18.457V21.1914C5.46875 21.4062 5.64453 21.582 5.85938 21.582H44.1406C44.3555 21.582 44.5312 21.4062 44.5312 21.1914V18.457C44.5312 18.2422 44.3555 18.0664 44.1406 18.0664Z" fill="#192D55"/>
</svg>
