<svg width="50" height="50" viewBox="0 0 50 50" fill="none" xmlns="http://www.w3.org/2000/svg">
<path d="M5.85938 11.2305H30.0781C30.293 11.2305 30.4688 11.0547 30.4688 10.8398V8.10547C30.4688 7.89062 30.293 7.71484 30.0781 7.71484H5.85938C5.64453 7.71484 5.46875 7.89062 5.46875 8.10547V10.8398C5.46875 11.0547 5.64453 11.2305 5.85938 11.2305ZM5.85938 31.9336H30.0781C30.293 31.9336 30.4688 31.7578 30.4688 31.543V28.8086C30.4688 28.5938 30.293 28.418 30.0781 28.418H5.85938C5.64453 28.418 5.46875 28.5938 5.46875 28.8086V31.543C5.46875 31.7578 5.64453 31.9336 5.85938 31.9336ZM44.1406 38.7695H5.85938C5.64453 38.7695 5.46875 38.9453 5.46875 39.1602V41.8945C5.46875 42.1094 5.64453 42.2852 5.85938 42.2852H44.1406C44.3555 42.2852 44.5312 42.1094 44.5312 41.8945V39.1602C44.5312 38.9453 44.3555 38.7695 44.1406 38.7695ZM44.1406 18.0664H5.85938C5.64453 18.0664 5.46875 18.2422 5.46875 18.457V21.1914C5.46875 21.4062 5.64453 21.582 5.85938 21.582H44.1406C44.3555 21.582 44.5312 21.4062 44.5312 21.1914V18.457C44.5312 18.2422 44.3555 18.0664 44.1406 18.0664Z" fill="#192D55"/>
</svg>
