<svg width="50" height="50" viewBox="0 0 50 50" fill="none" xmlns="http://www.w3.org/2000/svg">
<path d="M25.6562 40.6248C32.2374 40.6248 36.3187 37.2279 36.3187 31.8029C36.3187 27.7217 33.2437 24.6686 29.0562 24.3467V24.1748C30.6598 23.9334 32.1244 23.1267 33.1856 21.9005C34.2469 20.6742 34.8349 19.109 34.8437 17.4873C34.8437 12.7686 31.2124 9.7998 25.4249 9.7998H12.0093V40.6248H25.6562ZM18.4624 14.6061H23.7624C26.7718 14.6061 28.503 16.0154 28.503 18.4936C28.503 21.0998 26.5374 22.6186 23.0968 22.6186H18.4624V14.6029V14.6061ZM18.4624 35.8186V26.8686H23.8687C27.6718 26.8686 29.7437 28.4061 29.7437 31.2904C29.7437 34.2373 27.7343 35.8186 24.0187 35.8186H18.4593H18.4624Z" fill="#192D55"/>
</svg>
