<svg width="50" height="50" viewBox="0 0 50 50" fill="none" xmlns="http://www.w3.org/2000/svg">
<path d="M20.5357 10.7141H29.4643C29.4643 9.53014 28.994 8.39464 28.1568 7.55742C27.3195 6.7202 26.184 6.24986 25 6.24986C23.816 6.24986 22.6805 6.7202 21.8433 7.55742C21.0061 8.39464 20.5357 9.53014 20.5357 10.7141ZM17.8572 10.7141C17.8572 8.81974 18.6097 7.00293 19.9493 5.66338C21.2888 4.32384 23.1056 3.57129 25 3.57129C26.8944 3.57129 28.7113 4.32384 30.0508 5.66338C31.3903 7.00293 32.1429 8.81974 32.1429 10.7141H43.3036C43.6588 10.7141 43.9995 10.8552 44.2506 11.1064C44.5018 11.3576 44.6429 11.6982 44.6429 12.0534C44.6429 12.4086 44.5018 12.7493 44.2506 13.0005C43.9995 13.2516 43.6588 13.3927 43.3036 13.3927H40.9643L38.7911 39.4695C38.633 41.3665 37.7678 43.1348 36.367 44.4238C34.9662 45.7128 33.1322 46.4283 31.2286 46.4284H18.7715C16.8679 46.4283 15.0339 45.7128 13.6331 44.4238C12.2323 43.1348 11.3671 41.3665 11.209 39.4695L9.03575 13.3927H6.69646C6.34126 13.3927 6.00061 13.2516 5.74945 13.0005C5.49828 12.7493 5.35718 12.4086 5.35718 12.0534C5.35718 11.6982 5.49828 11.3576 5.74945 11.1064C6.00061 10.8552 6.34126 10.7141 6.69646 10.7141H17.8572ZM13.8786 39.2463C13.9807 40.4738 14.5404 41.6181 15.4467 42.4523C16.353 43.2865 17.5397 43.7496 18.7715 43.7499H31.2286C32.4604 43.7496 33.6471 43.2865 34.5533 42.4523C35.4596 41.6181 36.0193 40.4738 36.1215 39.2463L38.2786 13.3927H11.7232L13.8786 39.2463ZM20.9822 19.6427C21.3374 19.6427 21.678 19.7838 21.9292 20.035C22.1804 20.2861 22.3215 20.6268 22.3215 20.982V36.1606C22.3215 36.5158 22.1804 36.8564 21.9292 37.1076C21.678 37.3588 21.3374 37.4999 20.9822 37.4999C20.627 37.4999 20.2863 37.3588 20.0352 37.1076C19.784 36.8564 19.6429 36.5158 19.6429 36.1606V20.982C19.6429 20.6268 19.784 20.2861 20.0352 20.035C20.2863 19.7838 20.627 19.6427 20.9822 19.6427ZM30.3572 20.982C30.3572 20.6268 30.2161 20.2861 29.9649 20.035C29.7137 19.7838 29.3731 19.6427 29.0179 19.6427C28.6627 19.6427 28.322 19.7838 28.0709 20.035C27.8197 20.2861 27.6786 20.6268 27.6786 20.982V36.1606C27.6786 36.5158 27.8197 36.8564 28.0709 37.1076C28.322 37.3588 28.6627 37.4999 29.0179 37.4999C29.3731 37.4999 29.7137 37.3588 29.9649 37.1076C30.2161 36.8564 30.3572 36.5158 30.3572 36.1606V20.982Z" fill="#192D55"/>
</svg>
