<svg width="70" height="36" viewBox="0 0 70 36" fill="none" xmlns="http://www.w3.org/2000/svg">
<path d="M9.625 18C9.625 15.6794 10.5469 13.4538 12.1878 11.8128C13.8288 10.1719 16.0544 9.25 18.375 9.25C20.6956 9.25 22.9212 10.1719 24.5622 11.8128C26.2031 13.4538 27.125 15.6794 27.125 18C27.125 20.3206 26.2031 22.5462 24.5622 24.1872C22.9212 25.8281 20.6956 26.75 18.375 26.75C16.0544 26.75 13.8288 25.8281 12.1878 24.1872C10.5469 22.5462 9.625 20.3206 9.625 18ZM0 18C0 8.33475 7.83475 0.5 17.5 0.5H52.5C62.1652 0.5 70 8.33475 70 18C70 27.6652 62.1652 35.5 52.5 35.5H17.5C7.83475 35.5 0 27.6652 0 18ZM17.5 4.875C14.019 4.875 10.6806 6.25781 8.21922 8.71922C5.75781 11.1806 4.375 14.519 4.375 18C4.375 21.481 5.75781 24.8194 8.21922 27.2808C10.6806 29.7422 14.019 31.125 17.5 31.125H52.5C55.981 31.125 59.3194 29.7422 61.7808 27.2808C64.2422 24.8194 65.625 21.481 65.625 18C65.625 14.519 64.2422 11.1806 61.7808 8.71922C59.3194 6.25781 55.981 4.875 52.5 4.875H17.5Z" fill="#192D55"/>
</svg>
