<svg width="1102" height="222" viewBox="0 0 1102 222" fill="none" xmlns="http://www.w3.org/2000/svg">
<path d="M1101.67 58.2576C999.042 33.7447 886.286 15.0842 770.265 28.5944C687.98 38.6031 546.267 69.8037 471.641 92.0406C526.678 60.097 657.68 17.8447 776.931 3.44066C837.371 -1.65896 897.768 0.606208 953.872 10.0768C1009.98 19.5473 1060.43 35.9932 1101.67 58.2576Z" fill="#3E71D4"/>
<path d="M892.381 48.117C772.069 39.6376 644.512 97.1246 557.171 113.046C385.195 147.979 305.022 102.729 213.561 86.308C177.931 81.4229 139.797 81.6585 102.543 86.9941C65.2884 92.3297 30.066 102.6 0.00195257 116.894C33.5914 88.4868 120.637 61.1891 216.229 66.8557C305.525 72.5169 382.558 124.586 561.039 88.413C655.767 68.8497 792.618 24.8584 892.381 48.117Z" fill="#3E71D4"/>
<path d="M630.083 102.982C560.943 133.34 484.655 167.448 350.061 154.177C230.692 141.173 170.964 129.801 112.259 145.638C22.0717 170.135 56.2666 213.678 112.173 207.981C143.423 205.06 167.926 185.939 139.564 166.381C202.936 190.684 117.898 239.264 53.4682 215.173C10.4196 199.205 9.45986 160.295 69.3391 135.126C214.414 74.883 350.127 162.69 527.632 128.714C567.044 121.284 604.398 109.23 630.083 102.982Z" fill="#3E71D4"/>
</svg>
