<svg width="59" height="48" viewBox="0 0 59 48" fill="none" xmlns="http://www.w3.org/2000/svg">
<path d="M59 5.68574C57.357 8.13332 55.3413 10.2198 52.953 11.9451C52.9766 12.4078 52.9883 12.9308 52.9883 13.5141C52.9883 16.7548 52.5166 19.9994 51.5731 23.248C50.6296 26.4966 49.1883 29.6061 47.2494 32.5765C45.3104 35.5468 43.0008 38.1783 40.3205 40.4709C37.6401 42.7635 34.4182 44.5915 30.6548 45.9549C26.8913 47.3183 22.8579 48 18.5546 48C11.8385 48 5.65363 46.1841 0 42.5523C1.00345 42.6642 1.96585 42.7201 2.88719 42.7201C8.49794 42.7201 13.5092 40.9893 17.9211 37.5276C15.3051 37.4796 12.9622 36.673 10.8925 35.108C8.8228 33.543 7.39849 31.5432 6.61956 29.1086C7.38948 29.2554 8.14937 29.3289 8.89923 29.3289C9.9786 29.3289 11.0407 29.1879 12.0855 28.9059C9.29367 28.3459 6.97762 26.9533 5.13734 24.728C3.29712 22.5027 2.37701 19.9344 2.37701 17.0229V16.8728C4.09064 17.8231 5.91849 18.3286 7.86057 18.3893C6.20672 17.285 4.89547 15.845 3.92681 14.0693C2.95809 12.2936 2.47373 10.372 2.47373 8.30442C2.47373 6.12385 3.0193 4.09332 4.11046 2.21285C7.14651 5.94427 10.8253 8.92653 15.1469 11.1597C19.4685 13.3928 24.1048 14.633 29.0557 14.8803C28.8446 13.9989 28.7388 13.0792 28.7384 12.121C28.7384 8.77558 29.9205 5.91903 32.2847 3.55142C34.6489 1.18381 37.5012 0 40.8415 0C44.3387 0 47.2845 1.27537 49.6788 3.82612C52.4144 3.28344 54.9758 2.30185 57.363 0.881375C56.4433 3.78025 54.6711 6.01654 52.0463 7.59023C54.4587 7.30313 56.7767 6.6683 59 5.68574Z" fill="#25447F"/>
</svg>
