<svg width="44" height="36" viewBox="0 0 44 36" fill="none" xmlns="http://www.w3.org/2000/svg">
<path d="M39.5269 0.666992H4.70525C2.31126 0.666992 0.374303 2.61699 0.374303 5.00033L0.352539 31.0003C0.352539 33.3837 2.31126 35.3337 4.70525 35.3337H39.5269C41.9209 35.3337 43.8796 33.3837 43.8796 31.0003V5.00033C43.8796 2.61699 41.9209 0.666992 39.5269 0.666992ZM38.6564 9.87533L23.2695 19.452C22.5731 19.8853 21.659 19.8853 20.9626 19.452L5.57579 9.87533C5.35756 9.75337 5.16646 9.58859 5.01405 9.39098C4.86164 9.19336 4.75109 8.96701 4.68909 8.72563C4.62709 8.48425 4.61493 8.23285 4.65335 7.98666C4.69178 7.74046 4.77997 7.50459 4.91261 7.29331C5.04525 7.08203 5.21957 6.89975 5.42502 6.75748C5.63048 6.61522 5.86279 6.51593 6.1079 6.46564C6.35301 6.41535 6.60582 6.41509 6.85103 6.46488C7.09625 6.51467 7.32876 6.61348 7.53451 6.75533L22.1161 15.8337L36.6976 6.75533C36.9034 6.61348 37.1359 6.51467 37.3811 6.46488C37.6263 6.41509 37.8791 6.41535 38.1243 6.46564C38.3694 6.51593 38.6017 6.61522 38.8071 6.75748C39.0126 6.89975 39.1869 7.08203 39.3195 7.29331C39.4522 7.50459 39.5404 7.74046 39.5788 7.98666C39.6172 8.23285 39.6051 8.48425 39.5431 8.72563C39.4811 8.96701 39.3705 9.19336 39.2181 9.39098C39.0657 9.58859 38.8746 9.75337 38.6564 9.87533Z" fill="#25447F"/>
</svg>
