<svg width="19" height="25" viewBox="0 0 19 25" fill="none" xmlns="http://www.w3.org/2000/svg">
<path d="M16.6829 0.598633H1.78296C1.38779 0.598633 1.00881 0.755614 0.729378 1.03504C0.44995 1.31447 0.292969 1.69346 0.292969 2.08863V22.9486C0.292969 23.3437 0.44995 23.7227 0.729378 24.0022C1.00881 24.2816 1.38779 24.4386 1.78296 24.4386H16.6829C17.0781 24.4386 17.4571 24.2816 17.7365 24.0022C18.0159 23.7227 18.1729 23.3437 18.1729 22.9486V2.08863C18.1729 1.69346 18.0159 1.31447 17.7365 1.03504C17.4571 0.755614 17.0781 0.598633 16.6829 0.598633ZM16.6829 22.9486H1.78296V2.08863H16.6829V22.9486Z" fill="#192D55"/>
</svg>
