<svg width="23" height="23" viewBox="0 0 23 23" fill="none" xmlns="http://www.w3.org/2000/svg">
<path d="M16.9111 14.4735C18.256 12.6383 18.8583 10.363 18.5977 8.10284C18.337 5.84265 17.2325 3.76422 15.5053 2.28337C13.778 0.802526 11.5552 0.0284735 9.28175 0.116075C7.00826 0.203677 4.85168 1.14647 3.24346 2.75584C1.63524 4.36521 0.693991 6.52246 0.608016 8.79601C0.522041 11.0696 1.29768 13.2917 2.77976 15.018C4.26185 16.7442 6.34107 17.8472 8.60145 18.1062C10.8618 18.3653 13.1367 17.7613 14.9709 16.4151H14.9695C15.0111 16.4707 15.0556 16.5235 15.1056 16.5749L20.4528 21.9221C20.7132 22.1827 21.0665 22.3292 21.435 22.3293C21.8034 22.3294 22.1568 22.1832 22.4174 21.9228C22.678 21.6623 22.8245 21.3091 22.8246 20.9406C22.8247 20.5722 22.6785 20.2188 22.4181 19.9582L17.0709 14.611C17.0212 14.5607 16.9678 14.5143 16.9111 14.4721V14.4735ZM17.2695 9.13458C17.2695 10.1377 17.0719 11.1311 16.688 12.0579C16.3041 12.9846 15.7414 13.8268 15.0321 14.5361C14.3228 15.2454 13.4807 15.8081 12.5539 16.192C11.6271 16.5759 10.6337 16.7735 9.63059 16.7735C8.62743 16.7735 7.6341 16.5759 6.70731 16.192C5.78052 15.8081 4.93841 15.2454 4.22908 14.5361C3.51974 13.8268 2.95706 12.9846 2.57317 12.0579C2.18928 11.1311 1.9917 10.1377 1.9917 9.13458C1.9917 7.10862 2.79651 5.16564 4.22908 3.73307C5.66165 2.3005 7.60463 1.49569 9.63059 1.49569C11.6565 1.49569 13.5995 2.3005 15.0321 3.73307C16.4647 5.16564 17.2695 7.10862 17.2695 9.13458Z" fill="black"/>
</svg>
