<svg width="43" height="22" viewBox="0 0 43 22" fill="none" xmlns="http://www.w3.org/2000/svg">
<path d="M6.61589 11.3283C6.61589 9.94695 7.16462 8.62219 8.14137 7.64544C9.11812 6.66869 10.4429 6.11995 11.8242 6.11996C13.2056 6.11995 14.5303 6.66869 15.5071 7.64544C16.4838 8.62219 17.0326 9.94695 17.0326 11.3283C17.0326 12.7096 16.4838 14.0344 15.5071 15.0111C14.5303 15.9879 13.2056 16.5366 11.8242 16.5366C10.4429 16.5366 9.11812 15.9879 8.14137 15.0111C7.16462 14.0344 6.61589 12.7096 6.61589 11.3283ZM0.886719 11.3283C0.886719 5.57516 5.55026 0.911621 11.3034 0.911621H32.1367C37.8898 0.911621 42.5534 5.57516 42.5534 11.3283C42.5534 17.0814 37.8898 21.745 32.1367 21.745H11.3034C5.55026 21.745 0.886719 17.0814 0.886719 11.3283ZM11.3034 3.51579C9.23138 3.51579 7.24424 4.33889 5.77911 5.80402C4.31399 7.26914 3.49089 9.25628 3.49089 11.3283C3.49089 13.4003 4.31399 15.3874 5.77911 16.8526C7.24424 18.3177 9.23138 19.1408 11.3034 19.1408H32.1367C34.2087 19.1408 36.1959 18.3177 37.661 16.8526C39.1261 15.3874 39.9492 13.4003 39.9492 11.3283C39.9492 9.25628 39.1261 7.26914 37.661 5.80402C36.1959 4.33889 34.2087 3.51579 32.1367 3.51579H11.3034Z" fill="#192D55"/>
</svg>
