<svg width="113" height="30" viewBox="0 0 113 30" fill="none" xmlns="http://www.w3.org/2000/svg">
<rect x="0.617188" y="0.522461" width="111.522" height="28.7133" rx="9.8089" fill="#4A87FE"/>
<path d="M15.5659 16.4422V14.9874H16.7333C17.2562 14.9874 17.6593 14.8438 17.9427 14.5564C18.23 14.269 18.3737 13.8679 18.3737 13.353C18.3737 12.8661 18.23 12.4909 17.9427 12.2275C17.6593 11.9641 17.2562 11.8324 16.7333 11.8324H15.5898V10.3775H16.7333C17.799 10.3775 18.6232 10.629 19.2059 11.1319C19.7886 11.6308 20.08 12.3372 20.08 13.2512C20.08 14.265 19.7886 15.0513 19.2059 15.6101C18.6232 16.1649 17.799 16.4422 16.7333 16.4422H15.5659ZM14.129 18.8789V10.3775H15.7096V18.8789H14.129ZM23.7919 16.1489L23.4207 13.9637H23.9655C24.0293 12.9299 24.5701 12.4131 25.5879 12.4131C26.1906 12.4131 26.6516 12.6346 26.9709 13.0776C27.2942 13.5207 27.4558 14.1593 27.4558 14.9934H25.8394C25.8394 14.6182 25.7695 14.3488 25.6298 14.1852C25.4941 14.0216 25.2746 13.9397 24.9713 13.9397C24.5761 13.9397 24.2808 14.1313 24.0852 14.5145C23.8896 14.8976 23.7919 15.4424 23.7919 16.1489ZM20.8343 18.8789V17.49H25.2766V18.8789H20.8343ZM22.1754 18.8789V12.5328H23.5524L23.7919 14.3528V18.8789H22.1754ZM21.0738 13.9218V12.5328H23.4686L23.5883 13.9218H21.0738ZM31.2335 18.9986C30.3195 18.9986 29.6111 18.7113 29.1082 18.1365C28.6053 17.5618 28.3539 16.7516 28.3539 15.7059C28.3539 14.6562 28.6053 13.8459 29.1082 13.2752C29.6111 12.7005 30.3195 12.4131 31.2335 12.4131C32.1475 12.4131 32.856 12.7005 33.3589 13.2752C33.8618 13.8459 34.1132 14.6562 34.1132 15.7059C34.1132 16.7516 33.8618 17.5618 33.3589 18.1365C32.856 18.7113 32.1475 18.9986 31.2335 18.9986ZM31.2335 17.46C31.6247 17.46 31.926 17.3083 32.1376 17.005C32.3491 16.6977 32.4549 16.2646 32.4549 15.7059C32.4549 15.1431 32.3491 14.71 32.1376 14.4067C31.926 14.1034 31.6247 13.9517 31.2335 13.9517C30.8464 13.9517 30.545 14.1034 30.3295 14.4067C30.118 14.71 30.0122 15.1431 30.0122 15.7059C30.0122 16.2646 30.118 16.6977 30.3295 17.005C30.545 17.3083 30.8464 17.46 31.2335 17.46ZM37.7892 18.9986C37.0029 18.9986 36.3902 18.7153 35.9512 18.1485C35.5162 17.5817 35.2986 16.7695 35.2986 15.7118C35.2986 14.6622 35.5162 13.8499 35.9512 13.2752C36.3902 12.7005 37.0069 12.4131 37.8011 12.4131C38.2641 12.4131 38.6154 12.5188 38.8548 12.7304C39.0983 12.9379 39.256 13.2552 39.3278 13.6823H39.8546L39.4835 15.7118C39.4835 15.0972 39.3797 14.6482 39.1721 14.3648C38.9686 14.0814 38.6593 13.9397 38.2442 13.9397C37.8331 13.9397 37.5158 14.0954 37.2923 14.4067C37.0687 14.714 36.957 15.1491 36.957 15.7118C36.957 16.2946 37.0648 16.7336 37.2803 17.029C37.4998 17.3243 37.8211 17.472 38.2442 17.472C38.7072 17.472 39.0285 17.3323 39.2081 17.0529C39.3917 16.7735 39.4835 16.3265 39.4835 15.7118L39.9145 17.7294H39.3517C39.2879 18.1525 39.1222 18.4698 38.8548 18.6813C38.5874 18.8929 38.2322 18.9986 37.7892 18.9986ZM39.7169 18.9388L39.4835 17.6815V9.89859H41.1059V18.8789L39.7169 18.9388ZM44.6801 18.9986C44.0774 18.9986 43.6104 18.8011 43.2791 18.4059C42.9479 18.0068 42.7822 17.446 42.7822 16.7236V12.5328H44.4047V16.3225C44.4047 16.6857 44.4865 16.9671 44.6501 17.1667C44.8178 17.3622 45.0473 17.46 45.3386 17.46C45.7178 17.46 46.0032 17.3143 46.1947 17.023C46.3903 16.7276 46.4881 16.2347 46.4881 15.5442L46.8114 17.6576H46.3205C46.2207 18.0886 46.0271 18.4199 45.7397 18.6514C45.4524 18.8829 45.0991 18.9986 44.6801 18.9986ZM46.5959 18.9388L46.4881 17.4181V16.3045H48.1105V17.4301L48.9846 17.5618V18.8789L46.5959 18.9388ZM46.4881 17.0828V12.5328H48.1105V16.7236L46.4881 17.0828ZM53.5287 18.9986C52.3752 18.9986 51.4831 18.7153 50.8525 18.1485C50.2219 17.5778 49.9066 16.7596 49.9066 15.6939C49.9066 14.6562 50.194 13.8499 50.7687 13.2752C51.3435 12.7005 52.1637 12.4131 53.2293 12.4131C53.8839 12.4131 54.4447 12.5408 54.9116 12.7962C55.3826 13.0517 55.7159 13.4129 55.9114 13.8799L54.738 14.8138C54.5624 14.5384 54.3389 14.3269 54.0675 14.1792C53.8001 14.0275 53.5047 13.9517 53.1814 13.9517C52.6745 13.9517 52.2774 14.0974 51.99 14.3887C51.7067 14.6801 51.565 15.0952 51.565 15.634C51.565 16.2287 51.7466 16.6817 52.1098 16.993C52.477 17.3044 52.9978 17.46 53.6723 17.46C53.9597 17.46 54.2451 17.446 54.5285 17.4181C54.8158 17.3902 55.0952 17.3523 55.3666 17.3044L55.5343 18.819C55.211 18.8909 54.8777 18.9388 54.5345 18.9627C54.1912 18.9867 53.8559 18.9986 53.5287 18.9986ZM61.3176 18.9986C60.224 18.9986 59.4337 18.7791 58.9468 18.3401C58.4599 17.901 58.2164 17.1986 58.2164 16.2327V15.4065H59.8328V16.077C59.8328 16.56 59.9566 16.9112 60.204 17.1307C60.4555 17.3503 60.8666 17.46 61.4373 17.46C61.6209 17.46 61.8165 17.45 62.024 17.4301C62.2356 17.4061 62.4751 17.3762 62.7425 17.3403L62.8862 18.855C62.6227 18.9029 62.3653 18.9388 62.1138 18.9627C61.8664 18.9867 61.601 18.9986 61.3176 18.9986ZM58.2164 15.7837V10.617H59.8328V15.7837H58.2164ZM56.6957 14.0235V12.5328H62.6467V14.0235H56.6957ZM66.7656 18.8789V12.892H68.3821V18.8789H66.7656ZM64.4188 18.8789V17.3822H66.8854V18.8789H64.4188ZM68.2624 18.8789V17.3822H70.262V18.8789H68.2624ZM64.778 14.0295V12.5328H68.3821V14.0295H64.778ZM67.502 11.6767C67.1947 11.6767 66.9453 11.5809 66.7537 11.3893C66.5621 11.1977 66.4663 10.9483 66.4663 10.641C66.4663 10.3336 66.5621 10.0842 66.7537 9.89261C66.9453 9.70103 67.1947 9.60524 67.502 9.60524C67.8094 9.60524 68.0588 9.70103 68.2504 9.89261C68.442 10.0842 68.5378 10.3336 68.5378 10.641C68.5378 10.9483 68.442 11.1977 68.2504 11.3893C68.0588 11.5809 67.8094 11.6767 67.502 11.6767ZM73.2973 18.8789L71.1241 12.5328H72.7765L74.2852 17.454H74.3929L75.9016 12.5328H77.554L75.3808 18.8789H73.2973ZM81.1341 18.8789V12.892H82.7506V18.8789H81.1341ZM78.7873 18.8789V17.3822H81.2539V18.8789H78.7873ZM82.6309 18.8789V17.3822H84.6305V18.8789H82.6309ZM79.1465 14.0295V12.5328H82.7506V14.0295H79.1465ZM81.8705 11.6767C81.5632 11.6767 81.3138 11.5809 81.1222 11.3893C80.9306 11.1977 80.8348 10.9483 80.8348 10.641C80.8348 10.3336 80.9306 10.0842 81.1222 9.89261C81.3138 9.70103 81.5632 9.60524 81.8705 9.60524C82.1779 9.60524 82.4273 9.70103 82.6189 9.89261C82.8105 10.0842 82.9063 10.3336 82.9063 10.641C82.9063 10.9483 82.8105 11.1977 82.6189 11.3893C82.4273 11.5809 82.1779 11.6767 81.8705 11.6767ZM90.0546 18.9986C88.961 18.9986 88.1707 18.7791 87.6838 18.3401C87.1969 17.901 86.9534 17.1986 86.9534 16.2327V15.4065H88.5698V16.077C88.5698 16.56 88.6936 16.9112 88.941 17.1307C89.1925 17.3503 89.6036 17.46 90.1743 17.46C90.3579 17.46 90.5535 17.45 90.761 17.4301C90.9726 17.4061 91.2121 17.3762 91.4795 17.3403L91.6232 18.855C91.3597 18.9029 91.1023 18.9388 90.8508 18.9627C90.6034 18.9867 90.338 18.9986 90.0546 18.9986ZM86.9534 15.7837V10.617H88.5698V15.7837H86.9534ZM85.4327 14.0235V12.5328H91.3837V14.0235H85.4327ZM92.6469 21.7526L92.587 20.3457L93.6826 20.226C94.0578 20.182 94.3791 20.0823 94.6465 19.9266C94.9139 19.771 95.1414 19.5375 95.329 19.2261C95.5206 18.9188 95.6862 18.5157 95.8259 18.0168L97.3586 12.5328H99.0768L97.2927 18.3161C97.0532 19.0785 96.7779 19.6911 96.4665 20.1541C96.1552 20.6211 95.786 20.9683 95.359 21.1958C94.9319 21.4273 94.421 21.573 93.8263 21.6329L92.6469 21.7526ZM94.6585 18.8789L92.5272 12.5328H94.2454L95.82 17.5019H96.1073V18.8789H94.6585Z" fill="white"/>
</svg>
