<svg width="76" height="25" viewBox="0 0 76 25" fill="none" xmlns="http://www.w3.org/2000/svg">
<rect x="0.685547" y="0.832031" width="74.3658" height="23.4348" rx="7.90267" fill="#4A87FE"/>
<path d="M24.4253 16.0498V9.20057H25.6987V16.0498H24.4253ZM21.0972 16.0498V9.20057H22.3706V16.0498H21.0972ZM21.2998 13.2281V12.0512H25.5202V13.2281H21.2998ZM29.5912 16.1463C28.7069 16.1463 28.0236 15.918 27.5413 15.4613C27.0589 15.0015 26.8177 14.3423 26.8177 13.4838C26.8177 12.6477 27.0219 11.9981 27.4303 11.5351C27.8419 11.072 28.4207 10.8405 29.1667 10.8405C29.8967 10.8405 30.461 11.0544 30.8598 11.482C31.2585 11.9097 31.4579 12.5319 31.4579 13.3487C31.4579 13.5802 31.4482 13.8005 31.4289 14.0095H27.6763V13.1027H30.1748C30.1748 12.7586 30.0864 12.495 29.9095 12.3117C29.7359 12.1284 29.4915 12.0367 29.1764 12.0367C28.8355 12.0367 28.5702 12.1589 28.3805 12.4033C28.194 12.6445 28.1008 12.9885 28.1008 13.4355C28.1008 13.9179 28.239 14.2844 28.5156 14.5353C28.7953 14.7861 29.1925 14.9115 29.707 14.9115C29.9385 14.9115 30.1668 14.9002 30.3919 14.8777C30.617 14.852 30.8469 14.8182 31.0816 14.7764L31.207 16.0112C30.879 16.0691 30.58 16.1061 30.3099 16.1222C30.0398 16.1382 29.8002 16.1463 29.5912 16.1463ZM35.9147 16.098L35.8037 14.5835L35.7845 13.9179V12.9194C35.7845 12.6461 35.6671 12.4467 35.4323 12.3213C35.2008 12.1927 34.8551 12.1219 34.3953 12.1091L33.0882 12.0753L33.1846 10.8888L34.2988 10.9032C35.2249 10.9161 35.9131 11.0994 36.3633 11.4531C36.8134 11.8036 37.0385 12.3165 37.0385 12.9918V14.8825L37.7476 14.9887V16.0498L35.9147 16.098ZM34.1831 16.1463C33.6396 16.1463 33.2168 16.0128 32.9145 15.7459C32.6123 15.479 32.4611 15.0996 32.4611 14.6076C32.4611 14.0352 32.6589 13.5963 33.0544 13.2908C33.4499 12.9853 34.011 12.8326 34.7378 12.8326C35.0175 12.8326 35.2587 12.8471 35.4613 12.876C35.6671 12.9049 35.8745 12.95 36.0835 13.0111L35.8713 14.0288C35.6655 13.9806 35.4806 13.9532 35.3166 13.9468C35.1526 13.9372 34.9806 13.9323 34.8005 13.9323C34.1252 13.9323 33.7876 14.1253 33.7876 14.5111C33.7876 14.6848 33.8487 14.8182 33.9709 14.9115C34.093 15.0015 34.2715 15.0465 34.5062 15.0465C34.7892 15.0465 35.0256 14.9935 35.2153 14.8874C35.405 14.7812 35.5465 14.6462 35.6397 14.4822C35.7362 14.3182 35.7845 14.1494 35.7845 13.9757V13.6574L35.9677 14.9694H35.5578L35.7266 14.815C35.7169 15.1108 35.6494 15.3584 35.524 15.5578C35.3986 15.754 35.2217 15.9019 34.9934 16.0016C34.7683 16.098 34.4982 16.1463 34.1831 16.1463ZM41.5243 16.1463C40.8812 16.1463 40.4165 15.9694 40.1303 15.6157C39.8474 15.262 39.7059 14.696 39.7059 13.9179V8.8147H41.0082V13.8696C41.0082 14.0819 41.0307 14.2555 41.0757 14.3906C41.1207 14.5256 41.2076 14.6253 41.3362 14.6896C41.4648 14.7539 41.6561 14.7861 41.9102 14.7861C42.1932 14.7861 42.5501 14.725 42.981 14.6028L43.1305 15.9437C42.8572 16.0144 42.5935 16.0659 42.3395 16.098C42.0854 16.1302 41.8137 16.1463 41.5243 16.1463ZM38.2589 10.0157V8.8147H39.7927V10.0157H38.2589ZM47.6356 16.1463C46.7545 16.1463 46.1178 15.9694 45.7255 15.6157C45.3332 15.262 45.137 14.696 45.137 13.9179V13.2522H46.4394V13.7925C46.4394 14.1815 46.539 14.4645 46.7384 14.6414C46.941 14.8182 47.2722 14.9067 47.732 14.9067C47.8799 14.9067 48.0375 14.8986 48.2047 14.8825C48.3751 14.8632 48.5681 14.8391 48.7835 14.8102L48.8993 16.0305C48.6871 16.0691 48.4797 16.098 48.2771 16.1173C48.0777 16.1366 47.8639 16.1463 47.6356 16.1463ZM45.137 13.5561V9.3935H46.4394V13.5561H45.137ZM43.9119 12.138V10.937H48.7064V12.138H43.9119ZM53.1969 16.0498V12.9628C53.1969 12.6766 53.1326 12.4564 53.004 12.302C52.8786 12.1477 52.6985 12.0705 52.4638 12.0705C51.8078 12.0705 51.4798 12.5191 51.4798 13.4162L51.1808 11.8631H51.6052C51.6535 11.519 51.7708 11.2634 51.9573 11.0962C52.1438 10.9257 52.4268 10.8405 52.8062 10.8405C53.3465 10.8405 53.7645 11.0045 54.0603 11.3325C54.3562 11.6605 54.5041 12.1236 54.5041 12.7217V16.0498H53.1969ZM50.1727 16.0498V8.8147H51.4798V16.0498H50.1727Z" fill="white"/>
</svg>
