<svg width="69" height="30" viewBox="0 0 69 30" fill="none" xmlns="http://www.w3.org/2000/svg">
<rect x="0.311035" y="0.522461" width="68.5222" height="28.7133" rx="9.8089" fill="#4A87FE"/>
<path d="M15.8214 18.8789V10.3775H17.4019V18.8789H15.8214ZM13.3967 11.8324V10.3775H19.8266V11.8324H13.3967ZM23.5385 16.1489L23.1673 13.9637H23.7121C23.7759 12.9299 24.3167 12.4131 25.3345 12.4131C25.9372 12.4131 26.3982 12.6346 26.7175 13.0776C27.0408 13.5207 27.2024 14.1593 27.2024 14.9934H25.586C25.586 14.6182 25.5161 14.3488 25.3764 14.1852C25.2407 14.0216 25.0212 13.9397 24.7179 13.9397C24.3227 13.9397 24.0274 14.1313 23.8318 14.5145C23.6362 14.8976 23.5385 15.4424 23.5385 16.1489ZM20.5809 18.8789V17.49H25.0232V18.8789H20.5809ZM21.922 18.8789V12.5328H23.299L23.5385 14.3528V18.8789H21.922ZM20.8204 13.9218V12.5328H23.2152L23.3349 13.9218H20.8204ZM32.1476 18.9388L32.0099 17.0589L31.9859 16.2327V14.9934C31.9859 14.6542 31.8403 14.4067 31.5489 14.2511C31.2615 14.0914 30.8325 14.0036 30.2617 13.9876L28.6393 13.9457L28.759 12.4729L30.142 12.4909C31.2915 12.5069 32.1456 12.7344 32.7044 13.1734C33.2631 13.6085 33.5425 14.2451 33.5425 15.0832V17.4301L34.4226 17.5618V18.8789L32.1476 18.9388ZM29.9983 18.9986C29.3238 18.9986 28.7989 18.833 28.4237 18.5017C28.0486 18.1705 27.861 17.6995 27.861 17.0888C27.861 16.3784 28.1064 15.8336 28.5974 15.4544C29.0883 15.0752 29.7848 14.8857 30.6868 14.8857C31.034 14.8857 31.3334 14.9036 31.5848 14.9395C31.8403 14.9755 32.0977 15.0313 32.3571 15.1072L32.0937 16.3704C31.8383 16.3105 31.6088 16.2766 31.4052 16.2686C31.2017 16.2567 30.9881 16.2507 30.7646 16.2507C29.9264 16.2507 29.5074 16.4901 29.5074 16.9691C29.5074 17.1846 29.5832 17.3503 29.7349 17.466C29.8865 17.5778 30.1081 17.6336 30.3994 17.6336C30.7506 17.6336 31.044 17.5678 31.2795 17.4361C31.515 17.3044 31.6906 17.1367 31.8063 16.9332C31.9261 16.7296 31.9859 16.5201 31.9859 16.3045V15.9094L32.2134 17.5378H31.7046L31.9141 17.3463C31.9021 17.7135 31.8183 18.0208 31.6626 18.2682C31.507 18.5117 31.2875 18.6953 31.0041 18.819C30.7247 18.9388 30.3894 18.9986 29.9983 18.9986ZM37.1227 18.8789L34.9494 12.5328H36.6018L38.1105 17.454H38.2183L39.727 12.5328H41.3793L39.2061 18.8789H37.1227ZM45.8515 18.9986C44.7539 18.9986 43.9058 18.7153 43.3071 18.1485C42.7084 17.5778 42.4091 16.7596 42.4091 15.6939C42.4091 14.6562 42.6625 13.8499 43.1694 13.2752C43.6803 12.7005 44.3987 12.4131 45.3247 12.4131C46.2307 12.4131 46.9312 12.6785 47.4261 13.2093C47.921 13.7402 48.1685 14.5125 48.1685 15.5263C48.1685 15.8136 48.1565 16.087 48.1325 16.3465H43.4747V15.2209H46.576C46.576 14.7939 46.4662 14.4666 46.2467 14.2391C46.0311 14.0116 45.7278 13.8978 45.3367 13.8978C44.9136 13.8978 44.5843 14.0495 44.3488 14.3528C44.1173 14.6522 44.0016 15.0792 44.0016 15.634C44.0016 16.2327 44.1732 16.6877 44.5165 16.999C44.8637 17.3103 45.3566 17.466 45.9952 17.466C46.2826 17.466 46.566 17.452 46.8454 17.4241C47.1247 17.3922 47.4101 17.3503 47.7015 17.2984L47.8571 18.831C47.45 18.9029 47.0788 18.9488 46.7436 18.9687C46.4083 18.9887 46.111 18.9986 45.8515 18.9986ZM53.4788 18.9986C52.6806 18.9986 52.1038 18.7791 51.7486 18.3401C51.3974 17.901 51.2218 17.1986 51.2218 16.2327V9.89859H52.8382V16.1728C52.8382 16.4363 52.8662 16.6518 52.922 16.8194C52.9779 16.9871 53.0857 17.1108 53.2453 17.1906C53.405 17.2704 53.6425 17.3103 53.9578 17.3103C54.309 17.3103 54.752 17.2345 55.2869 17.0828L55.4724 18.7472C55.1332 18.835 54.8059 18.8989 54.4906 18.9388C54.1753 18.9787 53.838 18.9986 53.4788 18.9986ZM49.4257 11.3893V9.89859H51.3295V11.3893H49.4257Z" fill="white"/>
</svg>
