<svg width="1102" height="222" viewBox="0 0 1102 222" fill="none" xmlns="http://www.w3.org/2000/svg">
<g opacity="0.1">
<path d="M1101.67 58.258C999.042 33.7452 886.286 15.0847 770.265 28.5949C687.98 38.6036 546.267 69.8042 471.641 92.041C526.678 60.0975 657.68 17.8451 776.931 3.44114C837.371 -1.65848 897.768 0.606692 953.872 10.0773C1009.98 19.5478 1060.43 35.9937 1101.67 58.258Z" fill="#3E71D4"/>
<path d="M892.381 48.1175C772.069 39.6381 644.512 97.1251 557.171 113.047C385.195 147.98 305.022 102.73 213.561 86.3085C177.931 81.4233 139.797 81.659 102.543 86.9946C65.2884 92.3302 30.066 102.601 0.00195312 116.894C33.5914 88.4873 120.637 61.1896 216.229 66.8561C305.525 72.5174 382.558 124.587 561.039 88.4135C655.767 68.8501 792.618 24.8589 892.381 48.1175Z" fill="#3E71D4"/>
<path d="M630.083 102.982C560.943 133.341 484.655 167.449 350.061 154.178C230.692 141.173 170.964 129.801 112.259 145.638C22.0717 170.136 56.2666 213.678 112.173 207.981C143.423 205.06 167.926 185.939 139.564 166.382C202.936 190.684 117.898 239.264 53.4682 215.173C10.4196 199.205 9.45986 160.295 69.3391 135.126C214.414 74.8835 350.127 162.69 527.632 128.714C567.044 121.284 604.398 109.23 630.083 102.982Z" fill="#3E71D4"/>
</g>
</svg>
