<svg width="1440" height="996" viewBox="0 0 1440 996" fill="none" xmlns="http://www.w3.org/2000/svg">
<g opacity="0.05" clip-path="url(#clip0_231_667)">
<path d="M1273.57 650.55C1075.59 532.083 808.215 519.929 645.404 471.604C321.726 382.565 224.021 236.044 82.1344 128.963C25.5547 89.8292 -39.726 57.2689 -107.914 34.1722C-176.102 11.0754 -245.087 -1.84332 -308.748 -3.4374C-226.872 -22.881 -54.7306 5.77533 103.503 98.0739C250.995 184.921 337.446 340.364 673.296 432.909C851.863 481.405 1123.43 524.625 1273.57 650.55Z" fill="#C3D7FF"/>
<path d="M1621.96 848.76C1468.02 718.218 1291.72 588.909 1082.05 511.678C932.981 457.633 664.174 388.383 517.601 361.825C639.136 354.886 899.215 396.017 1115.17 474.515C1222.72 518.056 1323.83 574.127 1411.39 638.784C1498.95 703.442 1570.82 775.114 1621.96 848.76V848.76Z" fill="#C3D7FF"/>
<path d="M778.53 517.451C634.3 509.496 474.629 501.76 256.411 362.772C63.9457 237.4 -28.152 166.365 -142.023 142.647C-317.106 106.497 -296.389 210.361 -196.058 248.964C-140.205 270.99 -81.8621 259.539 -113.357 201.649C-26.2174 297.899 -213.328 307.297 -302.456 210.493C-362.117 146.033 -330.122 78.8023 -206.181 87.6095C93.4658 110.203 249.166 377.356 581.452 472.807C655.132 494.195 729.297 505.912 778.53 517.451Z" fill="#C3D7FF"/>
</g>
<defs>
<clipPath id="clip0_231_667">
<rect width="2109.53" height="312.482" fill="white" transform="translate(1561.85 995.378) rotate(-157.707)"/>
</clipPath>
</defs>
</svg>
