<svg width="35" height="36" viewBox="0 0 35 36" fill="none" xmlns="http://www.w3.org/2000/svg">
<g clip-path="url(#clip0_1269_1324)">
<path d="M14.583 8.72363H23.333V10.6681H14.583V8.72363Z" fill="#192D55"/>
<path d="M14.583 12.6133H23.333V14.5577H14.583V12.6133Z" fill="#192D55"/>
<path d="M14.583 16.502H23.333V18.4464H14.583V16.502Z" fill="#192D55"/>
<path d="M14.583 20.3906H23.333V22.3351H14.583V20.3906Z" fill="#192D55"/>
<path d="M14.583 24.2793H23.333V26.2237H14.583V24.2793Z" fill="#192D55"/>
<path d="M10.6943 8.72363H12.6388V10.6681H10.6943V8.72363Z" fill="#192D55"/>
<path d="M10.6943 12.6133H12.6388V14.5577H10.6943V12.6133Z" fill="#192D55"/>
<path d="M10.6943 16.502H12.6388V18.4464H10.6943V16.502Z" fill="#192D55"/>
<path d="M10.6943 20.3906H12.6388V22.3351H10.6943V20.3906Z" fill="#192D55"/>
<path d="M10.6943 24.2793H12.6388V26.2237H10.6943V24.2793Z" fill="#192D55"/>
<path d="M27.2219 2.89062H7.77745C7.26175 2.89063 6.76718 3.09549 6.40252 3.46014C6.03787 3.82479 5.83301 4.31937 5.83301 4.83507V32.0573C5.83301 32.573 6.03787 33.0676 6.40252 33.4322C6.76718 33.7969 7.26175 34.0017 7.77745 34.0017H27.2219C27.7376 34.0017 28.2322 33.7969 28.5968 33.4322C28.9615 33.0676 29.1663 32.573 29.1663 32.0573V4.83507C29.1663 4.31937 28.9615 3.82479 28.5968 3.46014C28.2322 3.09549 27.7376 2.89063 27.2219 2.89062ZM27.2219 32.0573H7.77745V4.83507H27.2219V32.0573Z" fill="#192D55"/>
</g>
<defs>
<clipPath id="clip0_1269_1324">
<rect width="35" height="35" fill="white" transform="translate(0 0.946289)"/>
</clipPath>
</defs>
</svg>
