<svg width="35" height="36" viewBox="0 0 35 36" fill="none" xmlns="http://www.w3.org/2000/svg">
<path d="M17.5 10.3379V15.1941" stroke="#192D55" stroke-width="1.5" stroke-miterlimit="10" stroke-linecap="round"/>
<path d="M17.5289 3.86279C12.1622 3.86279 7.8164 8.20863 7.8164 13.5753V16.6378C7.8164 17.6295 7.40806 19.117 6.89765 19.9628L5.04556 23.0545C3.90806 24.9649 4.69556 27.094 6.79556 27.794C13.7664 30.1128 21.306 30.1128 28.2768 27.794C30.2456 27.1378 31.0914 24.8336 30.0268 23.0545L28.1747 19.9628C27.6643 19.117 27.256 17.6149 27.256 16.6378V13.5753C27.2414 8.23779 22.8664 3.86279 17.5289 3.86279Z" stroke="#192D55" stroke-width="1.5" stroke-miterlimit="10" stroke-linecap="round"/>
<path d="M22.3561 28.3921C22.3561 31.0608 20.1686 33.2483 17.4998 33.2483C16.1727 33.2483 14.9477 32.6942 14.0727 31.8192C13.1977 30.9442 12.6436 29.7192 12.6436 28.3921" stroke="#192D55" stroke-width="1.5" stroke-miterlimit="10"/>
</svg>
