<svg width="18" height="22" viewBox="0 0 18 22" fill="none" xmlns="http://www.w3.org/2000/svg">
<path d="M0.771485 2.75098V21.3135C0.771397 21.4329 0.802401 21.5502 0.861443 21.654C0.920486 21.7577 1.00553 21.8443 1.10821 21.9053C1.21089 21.9662 1.32766 21.9993 1.44703 22.0014C1.5664 22.0035 1.68425 21.9744 1.78898 21.9171L9.02148 17.9709L16.254 21.9171C16.3587 21.9744 16.4766 22.0035 16.5959 22.0014C16.7153 21.9993 16.8321 21.9662 16.9348 21.9053C17.0374 21.8443 17.1225 21.7577 17.1815 21.654C17.2406 21.5502 17.2716 21.4329 17.2715 21.3135V2.75098C17.2715 2.02163 16.9818 1.32216 16.466 0.806433C15.9503 0.290708 15.2508 0.000976563 14.5215 0.000976562L3.52148 0.000976563C2.79214 0.000976563 2.09267 0.290708 1.57694 0.806433C1.06122 1.32216 0.771485 2.02163 0.771485 2.75098Z" fill="#25447F"/>
</svg>
