<svg width="33" height="28" viewBox="0 0 33 28" fill="none" xmlns="http://www.w3.org/2000/svg">
<path d="M25.4687 0.607864L19.6353 6.4412C19.4895 6.58703 19.4166 6.76203 19.4166 6.9662V18.8808C19.4166 19.5079 20.1603 19.8433 20.627 19.4204L26.4603 14.1704C26.5387 14.1041 26.6015 14.0214 26.6443 13.9282C26.6872 13.8349 26.709 13.7334 26.7083 13.6308V1.13286C26.7091 0.988906 26.6673 0.847919 26.5882 0.727671C26.509 0.607423 26.396 0.513295 26.2635 0.457152C26.1309 0.401008 25.9847 0.38536 25.8433 0.412181C25.7018 0.439001 25.5715 0.507089 25.4687 0.607864ZM31.7687 6.22245C31.0833 5.87245 30.3687 5.58078 29.6249 5.33286V22.8766C27.9624 22.2787 26.2562 21.9724 24.5208 21.9724C21.7499 21.9724 19.0083 22.7599 16.4999 24.2766V6.63078C14.1374 5.27453 11.4103 4.47245 8.47908 4.47245C5.86867 4.47245 3.40409 5.11411 1.23117 6.22245C0.749919 6.45578 0.458252 6.9662 0.458252 7.50578V25.1224C0.458252 26.2308 1.6395 26.9162 2.61659 26.3912C4.38117 25.4725 6.3645 24.8891 8.47908 24.8891C11.4978 24.8891 14.2833 26.0849 16.4999 27.8058C18.7166 26.0849 21.502 24.8891 24.5208 24.8891C26.6353 24.8891 28.6187 25.4725 30.3833 26.4058C31.3603 26.9308 32.5416 26.2454 32.5416 25.137V7.50578C32.5416 6.9662 32.2499 6.45578 31.7687 6.22245Z" fill="#192D55"/>
</svg>
