<svg width="32" height="32" viewBox="0 0 32 32" fill="none" xmlns="http://www.w3.org/2000/svg">
<path d="M29.7757 0.796666L30.6362 1.65708C31.8218 2.84417 31.6424 4.94854 30.2322 6.35729L12.4886 24.1008L6.7399 26.2037C6.01802 26.4692 5.31511 26.125 5.17219 25.4381C5.12389 25.189 5.14663 24.9312 5.23782 24.6944L7.38157 18.896L25.0755 1.20062C26.4857 -0.208126 28.5901 -0.388959 29.7757 0.798124V0.796666ZM11.7143 2.56125C11.9058 2.56125 12.0954 2.59897 12.2724 2.67226C12.4493 2.74555 12.6101 2.85297 12.7455 2.98838C12.8809 3.1238 12.9883 3.28457 13.0616 3.4615C13.1349 3.63844 13.1726 3.82807 13.1726 4.01958C13.1726 4.21109 13.1349 4.40073 13.0616 4.57766C12.9883 4.7546 12.8809 4.91536 12.7455 5.05078C12.6101 5.1862 12.4493 5.29362 12.2724 5.36691C12.0954 5.4402 11.9058 5.47792 11.7143 5.47792H5.88094C5.10739 5.47792 4.36553 5.78521 3.81855 6.33219C3.27156 6.87917 2.96427 7.62103 2.96427 8.39458V25.8946C2.96427 26.6681 3.27156 27.41 3.81855 27.957C4.36553 28.504 5.10739 28.8113 5.88094 28.8113H23.3809C24.1545 28.8113 24.8964 28.504 25.4433 27.957C25.9903 27.41 26.2976 26.6681 26.2976 25.8946V20.0612C26.2976 19.6745 26.4513 19.3035 26.7247 19.0301C26.9982 18.7566 27.3692 18.6029 27.7559 18.6029C28.1427 18.6029 28.5136 18.7566 28.7871 19.0301C29.0606 19.3035 29.2143 19.6745 29.2143 20.0612V25.8946C29.2143 27.4417 28.5997 28.9254 27.5057 30.0194C26.4118 31.1133 24.928 31.7279 23.3809 31.7279H5.88094C4.33384 31.7279 2.85011 31.1133 1.75615 30.0194C0.662189 28.9254 0.0476074 27.4417 0.0476074 25.8946V8.39458C0.0476074 6.84749 0.662189 5.36376 1.75615 4.26979C2.85011 3.17583 4.33384 2.56125 5.88094 2.56125H11.7143Z" fill="#192D55"/>
</svg>
