<svg width="18" height="6" viewBox="0 0 18 6" fill="none" xmlns="http://www.w3.org/2000/svg">
<path d="M2.14648 5.06348C1.59948 5.06348 1.07487 4.84618 0.688077 4.45938C0.301283 4.07259 0.0839844 3.54799 0.0839844 3.00098C0.0839844 2.45397 0.301283 1.92936 0.688077 1.54257C1.07487 1.15577 1.59948 0.938477 2.14648 0.938477C2.69349 0.938477 3.2181 1.15577 3.60489 1.54257C3.99169 1.92936 4.20898 2.45397 4.20898 3.00098C4.20898 3.54799 3.99169 4.07259 3.60489 4.45938C3.2181 4.84618 2.69349 5.06348 2.14648 5.06348ZM9.02148 5.06348C8.47447 5.06348 7.94987 4.84618 7.56308 4.45938C7.17628 4.07259 6.95898 3.54799 6.95898 3.00098C6.95898 2.45397 7.17628 1.92936 7.56308 1.54257C7.94987 1.15577 8.47447 0.938477 9.02148 0.938477C9.56849 0.938477 10.0931 1.15577 10.4799 1.54257C10.8667 1.92936 11.084 2.45397 11.084 3.00098C11.084 3.54799 10.8667 4.07259 10.4799 4.45938C10.0931 4.84618 9.56849 5.06348 9.02148 5.06348ZM15.8965 5.06348C15.3495 5.06348 14.8249 4.84618 14.4381 4.45938C14.0513 4.07259 13.834 3.54799 13.834 3.00098C13.834 2.45397 14.0513 1.92936 14.4381 1.54257C14.8249 1.15577 15.3495 0.938477 15.8965 0.938477C16.4435 0.938477 16.9681 1.15577 17.3549 1.54257C17.7417 1.92936 17.959 2.45397 17.959 3.00098C17.959 3.54799 17.7417 4.07259 17.3549 4.45938C16.9681 4.84618 16.4435 5.06348 15.8965 5.06348Z" fill="black"/>
</svg>
