<svg width="23" height="23" viewBox="0 0 23 23" fill="none" xmlns="http://www.w3.org/2000/svg">
<path d="M17.083 14.4292C18.4279 12.594 19.0302 10.3187 18.7696 8.05853C18.5089 5.79834 17.4044 3.71991 15.6771 2.23906C13.9498 0.758214 11.7271 -0.015838 9.45362 0.0717636C7.18013 0.159365 5.02355 1.10216 3.41533 2.71153C1.80712 4.3209 0.865866 6.47815 0.779891 8.7517C0.693916 11.0253 1.46956 13.2474 2.95164 14.9737C4.43372 16.6999 6.51294 17.8029 8.77332 18.0619C11.0337 18.321 13.3085 17.717 15.1427 16.3708H15.1413C15.183 16.4264 15.2275 16.4792 15.2775 16.5305L20.6247 21.8778C20.8851 22.1384 21.2384 22.2849 21.6068 22.285C21.9753 22.2851 22.3287 22.1389 22.5893 21.8785C22.8499 21.618 22.9964 21.2647 22.9965 20.8963C22.9966 20.5279 22.8504 20.1745 22.59 19.9139L17.2427 14.5667C17.1931 14.5164 17.1397 14.47 17.083 14.4278V14.4292ZM17.4413 9.09027C17.4413 10.0934 17.2438 11.0868 16.8599 12.0135C16.476 12.9403 15.9133 13.7824 15.204 14.4918C14.4946 15.2011 13.6525 15.7638 12.7257 16.1477C11.7989 16.5316 10.8056 16.7292 9.80246 16.7292C8.79931 16.7292 7.80598 16.5316 6.87919 16.1477C5.95239 15.7638 5.11029 15.2011 4.40095 14.4918C3.69162 13.7824 3.12894 12.9403 2.74505 12.0135C2.36116 11.0868 2.16357 10.0934 2.16357 9.09027C2.16357 7.06431 2.96838 5.12133 4.40095 3.68876C5.83352 2.25619 7.7765 1.45138 9.80246 1.45138C11.8284 1.45138 13.7714 2.25619 15.204 3.68876C16.6365 5.12133 17.4413 7.06431 17.4413 9.09027Z" fill="black"/>
</svg>
