<svg width="242" height="368" viewBox="0 0 242 368" fill="none" xmlns="http://www.w3.org/2000/svg">
<g opacity="0.3" clip-path="url(#clip0_974_697)">
<path d="M160.834 277.642C138.752 235.405 80.9283 221.136 53.4693 200.607C-2.45278 161.83 3.33047 115.51 -8.29275 78.8231C-13.6033 65.2255 -22.1158 53.1799 -33.0746 43.7554C-44.0335 34.3309 -57.0998 27.819 -71.1138 24.7977C-49.0184 22.465 -15.7356 37.6785 2.36391 70.7456C19.0807 101.803 9.07629 150.253 67.0716 190.534C98.041 211.746 150.924 235.171 160.834 277.642Z" fill="#DBEEEF"/>
<path d="M201.634 348.998C191.742 305.039 176.592 260.538 144.071 229.761C120.786 208.13 73.4544 177.285 45.5238 163.707C74.169 166.587 124.864 188.946 158.559 220.341C174.497 237.264 186.613 257.552 194.055 279.78C201.497 302.008 204.084 325.634 201.634 348.998Z" fill="#DBEEEF"/>
<path d="M74.7216 219.225C43.7941 211.124 9.35276 202.464 -13.3917 153.477C-32.9242 109.464 -40.1791 85.2087 -61.2937 73.7673C-93.8183 56.2674 -108.834 87.1504 -93.5843 102.354C-85.1965 110.972 -69.9073 110.006 -66.0239 91.9903C-64.6604 123.342 -108.518 118.536 -110.224 86.9446C-111.43 65.8957 -91.4993 47.7314 -65.2957 55.2638C-2.19103 73.8509 -17.7836 157.405 38.8596 198.383C51.3775 207.534 65.8359 213.907 74.7216 219.225Z" fill="#DBEEEF"/>
</g>
<defs>
<clipPath id="clip0_974_697">
<rect width="422.704" height="113.369" fill="white" transform="matrix(-0.679769 -0.733426 0.718237 -0.695799 160.342 389)"/>
</clipPath>
</defs>
</svg>
