<svg width="25" height="33" viewBox="0 0 25 33" fill="none" xmlns="http://www.w3.org/2000/svg">
<path d="M22.2221 0.944336H2.7777C2.262 0.944336 1.76742 1.1492 1.40277 1.51385C1.03811 1.8785 0.833252 2.37308 0.833252 2.88878V30.111C0.833252 30.6267 1.03811 31.1213 1.40277 31.4859C1.76742 31.8506 2.262 32.0554 2.7777 32.0554H22.2221C22.7378 32.0554 23.2324 31.8506 23.5971 31.4859C23.9617 31.1213 24.1666 30.6267 24.1666 30.111V2.88878C24.1666 2.37308 23.9617 1.8785 23.5971 1.51385C23.2324 1.1492 22.7378 0.944336 22.2221 0.944336ZM22.2221 30.111H2.7777V2.88878H22.2221V30.111Z" fill="#3F8F92"/>
</svg>
