<svg width="33" height="29" viewBox="0 0 33 29" fill="none" xmlns="http://www.w3.org/2000/svg">
<path d="M25.4687 0.968704L19.6353 6.80204C19.4895 6.94787 19.4166 7.12287 19.4166 7.32704V19.2416C19.4166 19.8687 20.1603 20.2041 20.627 19.7812L26.4603 14.5312C26.5387 14.4649 26.6015 14.3822 26.6443 14.289C26.6872 14.1958 26.709 14.0942 26.7083 13.9916V1.4937C26.7091 1.34975 26.6673 1.20876 26.5882 1.08851C26.509 0.968262 26.396 0.874135 26.2635 0.817991C26.1309 0.761848 25.9847 0.7462 25.8433 0.77302C25.7018 0.799841 25.5715 0.867929 25.4687 0.968704ZM31.7687 6.58329C31.0833 6.23329 30.3687 5.94162 29.6249 5.6937V23.2375C27.9624 22.6395 26.2562 22.3333 24.5208 22.3333C21.7499 22.3333 19.0083 23.1208 16.4999 24.6375V6.99162C14.1374 5.63537 11.4103 4.83329 8.47908 4.83329C5.86867 4.83329 3.40409 5.47495 1.23117 6.58329C0.749919 6.81662 0.458252 7.32704 0.458252 7.86662V25.4833C0.458252 26.5916 1.6395 27.277 2.61659 26.752C4.38117 25.8333 6.3645 25.25 8.47908 25.25C11.4978 25.25 14.2833 26.4458 16.4999 28.1666C18.7166 26.4458 21.502 25.25 24.5208 25.25C26.6353 25.25 28.6187 25.8333 30.3833 26.7666C31.3603 27.2916 32.5416 26.6062 32.5416 25.4979V7.86662C32.5416 7.32704 32.2499 6.81662 31.7687 6.58329Z" fill="#3F8F92"/>
</svg>
