<svg width="32" height="33" viewBox="0 0 32 33" fill="none" xmlns="http://www.w3.org/2000/svg">
<path d="M29.7757 1.15848L30.6362 2.0189C31.8218 3.20598 31.6424 5.31036 30.2322 6.71911L12.4886 24.4626L6.7399 26.5656C6.01802 26.831 5.31511 26.4868 5.17219 25.7999C5.12389 25.5508 5.14663 25.293 5.23782 25.0562L7.38157 19.2579L25.0755 1.56244C26.4857 0.15369 28.5901 -0.0271429 29.7757 1.15994V1.15848ZM11.7143 2.92307C11.9058 2.92307 12.0954 2.96079 12.2724 3.03407C12.4493 3.10736 12.6101 3.21478 12.7455 3.3502C12.8809 3.48562 12.9883 3.64639 13.0616 3.82332C13.1349 4.00025 13.1726 4.18989 13.1726 4.3814C13.1726 4.57291 13.1349 4.76255 13.0616 4.93948C12.9883 5.11641 12.8809 5.27718 12.7455 5.4126C12.6101 5.54802 12.4493 5.65544 12.2724 5.72872C12.0954 5.80201 11.9058 5.83973 11.7143 5.83973H5.88094C5.10739 5.83973 4.36553 6.14702 3.81855 6.694C3.27156 7.24099 2.96427 7.98285 2.96427 8.7564V26.2564C2.96427 27.0299 3.27156 27.7718 3.81855 28.3188C4.36553 28.8658 5.10739 29.1731 5.88094 29.1731H23.3809C24.1545 29.1731 24.8964 28.8658 25.4433 28.3188C25.9903 27.7718 26.2976 27.0299 26.2976 26.2564V20.4231C26.2976 20.0363 26.4513 19.6654 26.7247 19.3919C26.9982 19.1184 27.3692 18.9647 27.7559 18.9647C28.1427 18.9647 28.5136 19.1184 28.7871 19.3919C29.0606 19.6654 29.2143 20.0363 29.2143 20.4231V26.2564C29.2143 27.8035 28.5997 29.2872 27.5057 30.3812C26.4118 31.4752 24.928 32.0897 23.3809 32.0897H5.88094C4.33384 32.0897 2.85011 31.4752 1.75615 30.3812C0.662189 29.2872 0.0476074 27.8035 0.0476074 26.2564V8.7564C0.0476074 7.2093 0.662189 5.72557 1.75615 4.63161C2.85011 3.53765 4.33384 2.92307 5.88094 2.92307H11.7143Z" fill="#3F8F92"/>
</svg>
