<svg width="75" height="52" viewBox="0 0 75 52" fill="none" xmlns="http://www.w3.org/2000/svg">
<path d="M37.5 0.375C31.3136 0.394399 25.3382 2.62563 20.6531 6.66563C17.0625 9.75938 14.4609 13.7906 13.7906 17.8359C5.93437 19.5703 0 26.4141 0 34.6781C0 44.2781 8.00625 51.9375 17.7234 51.9375H59.4703C67.9781 51.9375 75 45.2344 75 36.8109C75 29.1422 69.1781 22.8937 61.7156 21.8391C60.5766 9.74531 50.1094 0.375 37.5 0.375ZM48.5344 24.4969C48.7523 24.7148 48.9251 24.9735 49.0431 25.2582C49.161 25.5429 49.2217 25.8481 49.2217 26.1562C49.2217 26.4644 49.161 26.7696 49.0431 27.0543C48.9251 27.339 48.7523 27.5977 48.5344 27.8156C48.3165 28.0335 48.0578 28.2064 47.773 28.3243C47.4883 28.4423 47.1832 28.503 46.875 28.503C46.5668 28.503 46.2617 28.4423 45.977 28.3243C45.6922 28.2064 45.4335 28.0335 45.2156 27.8156L39.8438 22.4391V40.2188C39.8438 40.8404 39.5968 41.4365 39.1573 41.876C38.7177 42.3156 38.1216 42.5625 37.5 42.5625C36.8784 42.5625 36.2823 42.3156 35.8427 41.876C35.4032 41.4365 35.1562 40.8404 35.1562 40.2188V22.4391L29.7844 27.8156C29.3443 28.2557 28.7474 28.503 28.125 28.503C27.5026 28.503 26.9057 28.2557 26.4656 27.8156C26.0255 27.3755 25.7783 26.7786 25.7783 26.1562C25.7783 25.5339 26.0255 24.937 26.4656 24.4969L35.8406 15.1219C36.0583 14.9036 36.317 14.7304 36.6017 14.6123C36.8865 14.4941 37.1917 14.4333 37.5 14.4333C37.8083 14.4333 38.1135 14.4941 38.3983 14.6123C38.683 14.7304 38.9417 14.9036 39.1594 15.1219L48.5344 24.4969Z" fill="#4A87FE"/>
</svg>
