<svg width="177" height="214" viewBox="0 0 177 214" fill="none" xmlns="http://www.w3.org/2000/svg">
<path d="M88.0016 80.3986C98.5838 80.3986 108.732 76.1949 116.215 68.7122C123.698 61.2295 127.902 51.0808 127.902 40.4986C127.902 29.9165 123.698 19.7678 116.215 12.2851C108.732 4.80237 98.5838 0.598633 88.0016 0.598633C77.4195 0.598633 67.2708 4.80237 59.7881 12.2851C52.3054 19.7678 48.1016 29.9165 48.1016 40.4986C48.1016 51.0808 52.3054 61.2295 59.7881 68.7122C67.2708 76.1949 77.4195 80.3986 88.0016 80.3986ZM1.08612 166.756C-0.14858 170.056 -0.284803 173.666 0.697719 177.05C1.68024 180.434 3.72899 183.41 6.53912 185.535C29.8319 203.637 58.502 213.443 88.0016 213.399C118.725 213.399 147.027 202.971 169.544 185.469C175.263 181.04 177.577 173.459 174.97 166.716C168.217 149.133 156.291 134.012 140.767 123.347C125.242 112.683 106.849 106.976 88.0145 106.98C69.1799 106.984 50.7892 112.7 35.2697 123.372C19.7502 134.043 7.83132 149.17 1.08612 166.756Z" fill="#868686"/>
</svg>
