<svg width="33" height="29" viewBox="0 0 33 29" fill="none" xmlns="http://www.w3.org/2000/svg">
<path d="M25.4688 0.968704L19.6355 6.80204C19.4896 6.94787 19.4167 7.12287 19.4167 7.32704V19.2416C19.4167 19.8687 20.1605 20.2041 20.6271 19.7812L26.4605 14.5312C26.5388 14.4649 26.6016 14.3822 26.6445 14.289C26.6873 14.1958 26.7091 14.0942 26.7084 13.9916V1.4937C26.7092 1.34975 26.6674 1.20876 26.5883 1.08851C26.5091 0.968262 26.3962 0.874135 26.2636 0.817991C26.131 0.761848 25.9848 0.7462 25.8434 0.77302C25.7019 0.799841 25.5716 0.867929 25.4688 0.968704ZM31.7688 6.58329C31.0834 6.23329 30.3688 5.94162 29.625 5.6937V23.2375C27.9625 22.6395 26.2563 22.3333 24.5209 22.3333C21.75 22.3333 19.0084 23.1208 16.5 24.6375V6.99162C14.1375 5.63537 11.4105 4.83329 8.47921 4.83329C5.86879 4.83329 3.40421 5.47495 1.23129 6.58329C0.750041 6.81662 0.458374 7.32704 0.458374 7.86662V25.4833C0.458374 26.5916 1.63962 27.277 2.61671 26.752C4.38129 25.8333 6.36462 25.25 8.47921 25.25C11.498 25.25 14.2834 26.4458 16.5 28.1666C18.7167 26.4458 21.5021 25.25 24.5209 25.25C26.6355 25.25 28.6188 25.8333 30.3834 26.7666C31.3605 27.2916 32.5417 26.6062 32.5417 25.4979V7.86662C32.5417 7.32704 32.25 6.81662 31.7688 6.58329Z" fill="#192D55"/>
</svg>
