<svg width="15" height="19" viewBox="0 0 15 19" fill="none" xmlns="http://www.w3.org/2000/svg">
<path d="M14.2 9.45614C14.2 8.23814 13.214 7.60014 11.88 7.60014H7.994C8.284 6.55614 8.4 5.57014 8.4 4.70014C8.4 1.33614 7.472 0.640137 6.66 0.640137C6.138 0.640137 5.732 0.698137 5.21 0.988137C5.036 1.10414 4.978 1.22014 4.92 1.39414L4.34 4.52614C3.702 6.15014 2.136 7.60014 0.860001 8.58614V16.8801C1.324 16.8801 1.788 17.1121 2.368 17.4021C3.006 17.6921 3.644 18.0401 4.34 18.0401H9.85C11.01 18.0401 11.88 17.1121 11.88 16.3001C11.88 16.1261 11.88 16.0101 11.822 15.8941C12.518 15.6041 13.04 15.0241 13.04 14.2701C13.04 13.9221 12.982 13.6321 12.866 13.3421C13.33 13.0521 13.736 12.5301 13.736 11.9501C13.736 11.6021 13.562 11.2541 13.388 10.9641C13.852 10.6161 14.2 10.0361 14.2 9.45614ZM12.982 9.45614C12.982 10.2101 12.228 10.2681 12.112 10.6161C11.996 11.0221 12.576 11.1381 12.576 11.8341C12.576 12.5301 11.706 12.5301 11.59 12.9361C11.474 13.4001 11.88 13.5161 11.88 14.2121V14.3281C11.764 14.9081 10.894 14.9661 10.72 15.1981C10.546 15.4881 10.72 15.6041 10.72 16.2421C10.72 16.5901 10.314 16.8221 9.85 16.8221H4.34C3.876 16.8221 3.412 16.5901 2.832 16.3001C2.368 16.0681 1.904 15.8361 1.44 15.7201V9.63014C2.89 8.52814 4.746 6.90414 5.442 4.87414V4.75814L5.964 1.85814C6.196 1.80014 6.37 1.80014 6.66 1.80014C6.776 1.80014 7.24 2.49614 7.24 4.70014C7.24 5.57014 7.066 6.49814 6.776 7.60014H6.66C6.312 7.60014 6.08 7.83214 6.08 8.18014C6.08 8.52814 6.312 8.76014 6.66 8.76014H11.88C12.46 8.76014 12.982 9.05014 12.982 9.45614Z" fill="#3E71D4"/>
</svg>
