<svg width="32" height="33" viewBox="0 0 32 33" fill="none" xmlns="http://www.w3.org/2000/svg">
<path d="M29.7756 1.15848L30.636 2.0189C31.8217 3.20598 31.6423 5.31036 30.2321 6.71911L12.4885 24.4626L6.73978 26.5656C6.0179 26.831 5.31499 26.4868 5.17207 25.7999C5.12377 25.5508 5.14651 25.293 5.23769 25.0562L7.38144 19.2579L25.0754 1.56244C26.4856 0.15369 28.59 -0.0271429 29.7756 1.15994V1.15848ZM11.7142 2.92307C11.9057 2.92307 12.0953 2.96079 12.2722 3.03407C12.4492 3.10736 12.6099 3.21478 12.7453 3.3502C12.8808 3.48562 12.9882 3.64639 13.0615 3.82332C13.1348 4.00025 13.1725 4.18989 13.1725 4.3814C13.1725 4.57291 13.1348 4.76255 13.0615 4.93948C12.9882 5.11641 12.8808 5.27718 12.7453 5.4126C12.6099 5.54802 12.4492 5.65544 12.2722 5.72872C12.0953 5.80201 11.9057 5.83973 11.7142 5.83973H5.88082C5.10727 5.83973 4.36541 6.14702 3.81842 6.694C3.27144 7.24099 2.96415 7.98285 2.96415 8.7564V26.2564C2.96415 27.0299 3.27144 27.7718 3.81842 28.3188C4.36541 28.8658 5.10727 29.1731 5.88082 29.1731H23.3808C24.1544 29.1731 24.8962 28.8658 25.4432 28.3188C25.9902 27.7718 26.2975 27.0299 26.2975 26.2564V20.4231C26.2975 20.0363 26.4511 19.6654 26.7246 19.3919C26.9981 19.1184 27.369 18.9647 27.7558 18.9647C28.1426 18.9647 28.5135 19.1184 28.787 19.3919C29.0605 19.6654 29.2142 20.0363 29.2142 20.4231V26.2564C29.2142 27.8035 28.5996 29.2872 27.5056 30.3812C26.4116 31.4752 24.9279 32.0897 23.3808 32.0897H5.88082C4.33372 32.0897 2.84999 31.4752 1.75603 30.3812C0.662067 29.2872 0.0474854 27.8035 0.0474854 26.2564V8.7564C0.0474854 7.2093 0.662067 5.72557 1.75603 4.63161C2.84999 3.53765 4.33372 2.92307 5.88082 2.92307H11.7142Z" fill="#192D55"/>
</svg>
