<svg width="19" height="19" viewBox="0 0 19 19" fill="none" xmlns="http://www.w3.org/2000/svg">
<path d="M18.4062 18.4062H17.8125C15.372 18.4061 13.0133 17.5263 11.169 15.928L10.5446 15.3868C10.1974 15.4205 9.8488 15.4375 9.5 15.4375C7.14255 15.4375 4.92126 14.6793 3.24529 13.3026C1.5354 11.8981 0.59375 10.0205 0.59375 8.01562C0.59375 6.01079 1.5354 4.13313 3.24529 2.72862C4.92126 1.35193 7.14255 0.59375 9.5 0.59375C11.8574 0.59375 14.0787 1.35193 15.7547 2.72862C17.4646 4.13313 18.4062 6.01079 18.4062 8.01562C18.4054 9.08134 18.1364 10.1297 17.6241 11.0642C17.1794 11.8781 16.5871 12.6021 15.8775 13.1994C16.4078 14.5478 17.2093 15.7729 18.2323 16.799L18.4062 16.9728V18.4062ZM10.9271 14.1469L11.9467 15.0306C13.3531 16.2494 15.1041 16.9998 16.9565 17.1778C15.9344 16.0353 15.1451 14.7044 14.6328 13.2597L14.4697 12.7972L14.8115 12.5349C16.3639 11.3435 17.2188 9.73858 17.2188 8.01562C17.2188 4.57796 13.7561 1.78125 9.5 1.78125C5.24389 1.78125 1.78125 4.57796 1.78125 8.01562C1.78125 11.4533 5.24389 14.25 9.5 14.25C9.88949 14.25 10.2786 14.2263 10.6652 14.179L10.9271 14.1469Z" fill="#3E71D4"/>
</svg>
