<svg width="25" height="33" viewBox="0 0 25 33" fill="none" xmlns="http://www.w3.org/2000/svg">
<path d="M22.2223 0.944336H2.77782C2.26212 0.944336 1.76754 1.1492 1.40289 1.51385C1.03823 1.8785 0.833374 2.37308 0.833374 2.88878V30.111C0.833374 30.6267 1.03823 31.1213 1.40289 31.4859C1.76754 31.8506 2.26212 32.0554 2.77782 32.0554H22.2223C22.738 32.0554 23.2325 31.8506 23.5972 31.4859C23.9618 31.1213 24.1667 30.6267 24.1667 30.111V2.88878C24.1667 2.37308 23.9618 1.8785 23.5972 1.51385C23.2325 1.1492 22.738 0.944336 22.2223 0.944336ZM22.2223 30.111H2.77782V2.88878H22.2223V30.111Z" fill="#192D55"/>
</svg>
